<mxfile host="app.diagrams.net" agent="Mozilla/5.0 (Windows NT 10.0; Win64; x64) AppleWebKit/537.36 (KHTML, like Gecko) Chrome/131.0.0.0 Safari/537.36" version="24.9.0">
  <diagram name="Page-1" id="J0TgZLrOSawpwRAe1rya">
    <mxGraphModel dx="965" dy="510" grid="1" gridSize="10" guides="1" tooltips="1" connect="1" arrows="1" fold="1" page="1" pageScale="1" pageWidth="850" pageHeight="1100" math="0" shadow="0">
      <root>
        <mxCell id="0" />
        <mxCell id="1" parent="0" />
        <mxCell id="FQHwOl0wt63TDuhiePMV-3" value="" style="edgeStyle=orthogonalEdgeStyle;rounded=0;orthogonalLoop=1;jettySize=auto;html=1;" edge="1" parent="1" source="FQHwOl0wt63TDuhiePMV-1" target="FQHwOl0wt63TDuhiePMV-2">
          <mxGeometry relative="1" as="geometry" />
        </mxCell>
        <mxCell id="FQHwOl0wt63TDuhiePMV-1" value="start" style="strokeWidth=2;html=1;shape=mxgraph.flowchart.start_1;whiteSpace=wrap;" vertex="1" parent="1">
          <mxGeometry x="440" y="80" width="100" height="60" as="geometry" />
        </mxCell>
        <mxCell id="FQHwOl0wt63TDuhiePMV-5" value="" style="edgeStyle=orthogonalEdgeStyle;rounded=0;orthogonalLoop=1;jettySize=auto;html=1;" edge="1" parent="1" source="FQHwOl0wt63TDuhiePMV-2" target="FQHwOl0wt63TDuhiePMV-4">
          <mxGeometry relative="1" as="geometry" />
        </mxCell>
        <mxCell id="FQHwOl0wt63TDuhiePMV-2" value="กำหนดตัวแปร มา 4 ตัว&lt;div&gt;a&amp;nbsp; b c answer&amp;nbsp;&lt;/div&gt;" style="whiteSpace=wrap;html=1;strokeWidth=2;" vertex="1" parent="1">
          <mxGeometry x="430" y="190" width="120" height="60" as="geometry" />
        </mxCell>
        <mxCell id="FQHwOl0wt63TDuhiePMV-7" value="" style="edgeStyle=orthogonalEdgeStyle;rounded=0;orthogonalLoop=1;jettySize=auto;html=1;" edge="1" parent="1" source="FQHwOl0wt63TDuhiePMV-4" target="FQHwOl0wt63TDuhiePMV-6">
          <mxGeometry relative="1" as="geometry" />
        </mxCell>
        <mxCell id="FQHwOl0wt63TDuhiePMV-4" value="แสดงข้อความว่าให้กรอก&lt;div&gt;ตัวเลข&lt;/div&gt;" style="shape=parallelogram;perimeter=parallelogramPerimeter;whiteSpace=wrap;html=1;fixedSize=1;strokeWidth=2;" vertex="1" parent="1">
          <mxGeometry x="420" y="300" width="140" height="80" as="geometry" />
        </mxCell>
        <mxCell id="FQHwOl0wt63TDuhiePMV-9" value="" style="edgeStyle=orthogonalEdgeStyle;rounded=0;orthogonalLoop=1;jettySize=auto;html=1;" edge="1" parent="1" source="FQHwOl0wt63TDuhiePMV-6" target="FQHwOl0wt63TDuhiePMV-8">
          <mxGeometry relative="1" as="geometry" />
        </mxCell>
        <mxCell id="FQHwOl0wt63TDuhiePMV-6" value="กรอกตัวเลขตามต้องการ" style="shape=parallelogram;perimeter=parallelogramPerimeter;whiteSpace=wrap;html=1;fixedSize=1;strokeWidth=2;" vertex="1" parent="1">
          <mxGeometry x="420" y="420" width="140" height="80" as="geometry" />
        </mxCell>
        <mxCell id="FQHwOl0wt63TDuhiePMV-11" value="" style="edgeStyle=orthogonalEdgeStyle;rounded=0;orthogonalLoop=1;jettySize=auto;html=1;" edge="1" parent="1" source="FQHwOl0wt63TDuhiePMV-8" target="FQHwOl0wt63TDuhiePMV-10">
          <mxGeometry relative="1" as="geometry" />
        </mxCell>
        <mxCell id="FQHwOl0wt63TDuhiePMV-8" value="นำค่าตัวเลขมาบวกกัน" style="whiteSpace=wrap;html=1;strokeWidth=2;" vertex="1" parent="1">
          <mxGeometry x="430" y="540" width="120" height="60" as="geometry" />
        </mxCell>
        <mxCell id="FQHwOl0wt63TDuhiePMV-13" value="" style="edgeStyle=orthogonalEdgeStyle;rounded=0;orthogonalLoop=1;jettySize=auto;html=1;" edge="1" parent="1" source="FQHwOl0wt63TDuhiePMV-10" target="FQHwOl0wt63TDuhiePMV-12">
          <mxGeometry relative="1" as="geometry" />
        </mxCell>
        <mxCell id="FQHwOl0wt63TDuhiePMV-10" value="แสดงค่าตัวเลขที่บวกกัน&lt;div&gt;ออกมาเป็น answer&lt;/div&gt;" style="shape=parallelogram;perimeter=parallelogramPerimeter;whiteSpace=wrap;html=1;fixedSize=1;strokeWidth=2;" vertex="1" parent="1">
          <mxGeometry x="420" y="640" width="140" height="80" as="geometry" />
        </mxCell>
        <mxCell id="FQHwOl0wt63TDuhiePMV-12" value="end" style="strokeWidth=2;html=1;shape=mxgraph.flowchart.start_1;whiteSpace=wrap;" vertex="1" parent="1">
          <mxGeometry x="440" y="760" width="100" height="60" as="geometry" />
        </mxCell>
      </root>
    </mxGraphModel>
  </diagram>
</mxfile>
